<svg id="visual" viewBox="0 0 900 600" width="900" height="600" xmlns="http://www.w3.org/2000/svg" xmlns:xlink="http://www.w3.org/1999/xlink" version="1.1"><path d="M0 187L18.8 166C37.7 145 75.3 103 112.8 101C150.3 99 187.7 137 225.2 140C262.7 143 300.3 111 337.8 96C375.3 81 412.7 83 450.2 77C487.7 71 525.3 57 562.8 52C600.3 47 637.7 51 675.2 89C712.7 127 750.3 199 787.8 194C825.3 189 862.7 107 881.3 66L900 25L900 0L881.3 0C862.7 0 825.3 0 787.8 0C750.3 0 712.7 0 675.2 0C637.7 0 600.3 0 562.8 0C525.3 0 487.7 0 450.2 0C412.7 0 375.3 0 337.8 0C300.3 0 262.7 0 225.2 0C187.7 0 150.3 0 112.8 0C75.3 0 37.7 0 18.8 0L0 0Z" fill="#f9004d"></path><path d="M0 247L18.8 229C37.7 211 75.3 175 112.8 181C150.3 187 187.7 235 225.2 231C262.7 227 300.3 171 337.8 151C375.3 131 412.7 147 450.2 158C487.7 169 525.3 175 562.8 167C600.3 159 637.7 137 675.2 155C712.7 173 750.3 231 787.8 224C825.3 217 862.7 145 881.3 109L900 73L900 23L881.3 64C862.7 105 825.3 187 787.8 192C750.3 197 712.7 125 675.2 87C637.7 49 600.3 45 562.8 50C525.3 55 487.7 69 450.2 75C412.7 81 375.3 79 337.8 94C300.3 109 262.7 141 225.2 138C187.7 135 150.3 97 112.8 99C75.3 101 37.7 143 18.8 164L0 185Z" fill="#e11448"></path><path d="M0 253L18.8 237C37.7 221 75.3 189 112.8 201C150.3 213 187.7 269 225.2 262C262.7 255 300.3 185 337.8 166C375.3 147 412.7 179 450.2 192C487.7 205 525.3 199 562.8 188C600.3 177 637.7 161 675.2 181C712.7 201 750.3 257 787.8 245C825.3 233 862.7 153 881.3 113L900 73L900 71L881.3 107C862.7 143 825.3 215 787.8 222C750.3 229 712.7 171 675.2 153C637.7 135 600.3 157 562.8 165C525.3 173 487.7 167 450.2 156C412.7 145 375.3 129 337.8 149C300.3 169 262.7 225 225.2 229C187.7 233 150.3 185 112.8 179C75.3 173 37.7 209 18.8 227L0 245Z" fill="#ca1c42"></path><path d="M0 319L18.8 295C37.7 271 75.3 223 112.8 235C150.3 247 187.7 319 225.2 312C262.7 305 300.3 219 337.8 192C375.3 165 412.7 197 450.2 211C487.7 225 525.3 221 562.8 208C600.3 195 637.7 173 675.2 200C712.7 227 750.3 303 787.8 303C825.3 303 862.7 227 881.3 189L900 151L900 71L881.3 111C862.7 151 825.3 231 787.8 243C750.3 255 712.7 199 675.2 179C637.7 159 600.3 175 562.8 186C525.3 197 487.7 203 450.2 190C412.7 177 375.3 145 337.8 164C300.3 183 262.7 253 225.2 260C187.7 267 150.3 211 112.8 199C75.3 187 37.7 219 18.8 235L0 251Z" fill="#b3213d"></path><path d="M0 343L18.8 320C37.7 297 75.3 251 112.8 262C150.3 273 187.7 341 225.2 330C262.7 319 300.3 229 337.8 204C375.3 179 412.7 219 450.2 235C487.7 251 525.3 243 562.8 230C600.3 217 637.7 199 675.2 224C712.7 249 750.3 317 787.8 318C825.3 319 862.7 253 881.3 220L900 187L900 149L881.3 187C862.7 225 825.3 301 787.8 301C750.3 301 712.7 225 675.2 198C637.7 171 600.3 193 562.8 206C525.3 219 487.7 223 450.2 209C412.7 195 375.3 163 337.8 190C300.3 217 262.7 303 225.2 310C187.7 317 150.3 245 112.8 233C75.3 221 37.7 269 18.8 293L0 317Z" fill="#9d2337"></path><path d="M0 397L18.8 403C37.7 409 75.3 421 112.8 429C150.3 437 187.7 441 225.2 424C262.7 407 300.3 369 337.8 352C375.3 335 412.7 339 450.2 348C487.7 357 525.3 371 562.8 386C600.3 401 637.7 417 675.2 425C712.7 433 750.3 433 787.8 419C825.3 405 862.7 377 881.3 363L900 349L900 185L881.3 218C862.7 251 825.3 317 787.8 316C750.3 315 712.7 247 675.2 222C637.7 197 600.3 215 562.8 228C525.3 241 487.7 249 450.2 233C412.7 217 375.3 177 337.8 202C300.3 227 262.7 317 225.2 328C187.7 339 150.3 271 112.8 260C75.3 249 37.7 295 18.8 318L0 341Z" fill="#872432"></path><path d="M0 451L18.8 454C37.7 457 75.3 463 112.8 466C150.3 469 187.7 469 225.2 454C262.7 439 300.3 409 337.8 401C375.3 393 412.7 407 450.2 416C487.7 425 525.3 429 562.8 434C600.3 439 637.7 445 675.2 448C712.7 451 750.3 451 787.8 445C825.3 439 862.7 427 881.3 421L900 415L900 347L881.3 361C862.7 375 825.3 403 787.8 417C750.3 431 712.7 431 675.2 423C637.7 415 600.3 399 562.8 384C525.3 369 487.7 355 450.2 346C412.7 337 375.3 333 337.8 350C300.3 367 262.7 405 225.2 422C187.7 439 150.3 435 112.8 427C75.3 419 37.7 407 18.8 401L0 395Z" fill="#72242d"></path><path d="M0 505L18.8 503C37.7 501 75.3 497 112.8 497C150.3 497 187.7 501 225.2 491C262.7 481 300.3 457 337.8 450C375.3 443 412.7 453 450.2 460C487.7 467 525.3 471 562.8 473C600.3 475 637.7 475 675.2 480C712.7 485 750.3 495 787.8 492C825.3 489 862.7 473 881.3 465L900 457L900 413L881.3 419C862.7 425 825.3 437 787.8 443C750.3 449 712.7 449 675.2 446C637.7 443 600.3 437 562.8 432C525.3 427 487.7 423 450.2 414C412.7 405 375.3 391 337.8 399C300.3 407 262.7 437 225.2 452C187.7 467 150.3 467 112.8 464C75.3 461 37.7 455 18.8 452L0 449Z" fill="#5d2227"></path><path d="M0 541L18.8 537C37.7 533 75.3 525 112.8 522C150.3 519 187.7 521 225.2 517C262.7 513 300.3 503 337.8 498C375.3 493 412.7 493 450.2 497C487.7 501 525.3 509 562.8 512C600.3 515 637.7 513 675.2 519C712.7 525 750.3 539 787.8 538C825.3 537 862.7 521 881.3 513L900 505L900 455L881.3 463C862.7 471 825.3 487 787.8 490C750.3 493 712.7 483 675.2 478C637.7 473 600.3 473 562.8 471C525.3 469 487.7 465 450.2 458C412.7 451 375.3 441 337.8 448C300.3 455 262.7 479 225.2 489C187.7 499 150.3 495 112.8 495C75.3 495 37.7 499 18.8 501L0 503Z" fill="#482022"></path><path d="M0 583L18.8 575C37.7 567 75.3 551 112.8 546C150.3 541 187.7 547 225.2 549C262.7 551 300.3 549 337.8 546C375.3 543 412.7 539 450.2 536C487.7 533 525.3 531 562.8 537C600.3 543 637.7 557 675.2 568C712.7 579 750.3 587 787.8 577C825.3 567 862.7 539 881.3 525L900 511L900 503L881.3 511C862.7 519 825.3 535 787.8 536C750.3 537 712.7 523 675.2 517C637.7 511 600.3 513 562.8 510C525.3 507 487.7 499 450.2 495C412.7 491 375.3 491 337.8 496C300.3 501 262.7 511 225.2 515C187.7 519 150.3 517 112.8 520C75.3 523 37.7 531 18.8 535L0 539Z" fill="#351c1d"></path><path d="M0 601L18.8 601C37.7 601 75.3 601 112.8 601C150.3 601 187.7 601 225.2 601C262.7 601 300.3 601 337.8 601C375.3 601 412.7 601 450.2 601C487.7 601 525.3 601 562.8 601C600.3 601 637.7 601 675.2 601C712.7 601 750.3 601 787.8 601C825.3 601 862.7 601 881.3 601L900 601L900 509L881.3 523C862.7 537 825.3 565 787.8 575C750.3 585 712.7 577 675.2 566C637.7 555 600.3 541 562.8 535C525.3 529 487.7 531 450.2 534C412.7 537 375.3 541 337.8 544C300.3 547 262.7 549 225.2 547C187.7 545 150.3 539 112.8 544C75.3 549 37.7 565 18.8 573L0 581Z" fill="#211818"></path></svg>