<svg id="visual" viewBox="0 0 900 600" width="900" height="600" xmlns="http://www.w3.org/2000/svg" xmlns:xlink="http://www.w3.org/1999/xlink" version="1.1"><g stroke-width="1" stroke-linejoin="bevel"><path d="M447 332L464.3 345L462 335Z" fill="#1e0c18" stroke="#1e0c18"></path><path d="M510.3 321L479.6 304L462 335Z" fill="#170c19" stroke="#170c19"></path><path d="M462 335L479.6 304L447 332Z" fill="#120c19" stroke="#120c19"></path><path d="M464.3 345L510.3 321L462 335Z" fill="#060b14" stroke="#060b14"></path><path d="M358.7 274L361.7 332L447 332Z" fill="#060b14" stroke="#060b14"></path><path d="M447 332L373.7 429L464.3 345Z" fill="#170c19" stroke="#170c19"></path><path d="M504 429L540.6 374L464.3 345Z" fill="#060b14" stroke="#060b14"></path><path d="M464.3 345L540.6 374L510.3 321Z" fill="#040b12" stroke="#040b12"></path><path d="M534 224L429 252L479.6 304Z" fill="#1e0c18" stroke="#1e0c18"></path><path d="M479.6 304L429 252L447 332Z" fill="#210c16" stroke="#210c16"></path><path d="M373.7 429L504 429L464.3 345Z" fill="#040b12" stroke="#040b12"></path><path d="M429 252L358.7 274L447 332Z" fill="#03090f" stroke="#03090f"></path><path d="M361.7 332L373.7 429L447 332Z" fill="#210c16" stroke="#210c16"></path><path d="M504 429L573.3 400L540.6 374Z" fill="#1e0c18" stroke="#1e0c18"></path><path d="M586.6 259L534 224L510.3 321Z" fill="#1e0c18" stroke="#1e0c18"></path><path d="M373.7 429L459.3 480L504 429Z" fill="#210c16" stroke="#210c16"></path><path d="M504 429L535 476L573.3 400Z" fill="#170c19" stroke="#170c19"></path><path d="M586.6 259L510.3 321L540.6 374Z" fill="#03090f" stroke="#03090f"></path><path d="M510.3 321L534 224L479.6 304Z" fill="#03080b" stroke="#03080b"></path><path d="M317.7 283L308.4 336L361.7 332Z" fill="#1e0c18" stroke="#1e0c18"></path><path d="M361.7 332L290.7 407L373.7 429Z" fill="#1a0c19" stroke="#1a0c19"></path><path d="M358.7 274L317.7 283L361.7 332Z" fill="#060b14" stroke="#060b14"></path><path d="M297.4 267L317.7 283L358.7 274Z" fill="#03090f" stroke="#03090f"></path><path d="M373.7 429L441 490L459.3 480Z" fill="#1e0c18" stroke="#1e0c18"></path><path d="M382.4 201L369.4 214L429 252Z" fill="#1a0c19" stroke="#1a0c19"></path><path d="M429 252L369.4 214L358.7 274Z" fill="#03090f" stroke="#03090f"></path><path d="M559.6 523L535 476L459.3 480Z" fill="#0a0c16" stroke="#0a0c16"></path><path d="M459.3 480L535 476L504 429Z" fill="#0a0c16" stroke="#0a0c16"></path><path d="M604.9 397L586.6 259L540.6 374Z" fill="#1e0c18" stroke="#1e0c18"></path><path d="M447.7 180L382.4 201L429 252Z" fill="#210c16" stroke="#210c16"></path><path d="M354.1 484L405.4 495L373.7 429Z" fill="#03080b" stroke="#03080b"></path><path d="M373.7 429L405.4 495L441 490Z" fill="#120c19" stroke="#120c19"></path><path d="M624.9 410L604.9 397L573.3 400Z" fill="#1e0c18" stroke="#1e0c18"></path><path d="M573.3 400L604.9 397L540.6 374Z" fill="#120c19" stroke="#120c19"></path><path d="M534 224L447.7 180L429 252Z" fill="#03090f" stroke="#03090f"></path><path d="M317.4 471L354.1 484L373.7 429Z" fill="#040b12" stroke="#040b12"></path><path d="M287.1 258L297.4 267L369.4 214Z" fill="#0e0c18" stroke="#0e0c18"></path><path d="M369.4 214L297.4 267L358.7 274Z" fill="#03080b" stroke="#03080b"></path><path d="M317.7 283L297.4 267L308.4 336Z" fill="#060b14" stroke="#060b14"></path><path d="M586.6 259L572.3 216L534 224Z" fill="#03080b" stroke="#03080b"></path><path d="M534 224L517.3 150L447.7 180Z" fill="#120c19" stroke="#120c19"></path><path d="M203.1 341L290.7 407L308.4 336Z" fill="#120c19" stroke="#120c19"></path><path d="M308.4 336L290.7 407L361.7 332Z" fill="#120c19" stroke="#120c19"></path><path d="M354.1 484L396.4 508L405.4 495Z" fill="#170c19" stroke="#170c19"></path><path d="M405.4 495L396.4 508L441 490Z" fill="#03090f" stroke="#03090f"></path><path d="M522.3 600L559.6 523L459.3 480Z" fill="#040b12" stroke="#040b12"></path><path d="M586.6 259L580.6 214L572.3 216Z" fill="#040b12" stroke="#040b12"></path><path d="M572.3 216L517.3 150L534 224Z" fill="#0a0c16" stroke="#0a0c16"></path><path d="M610.9 494L624.9 410L573.3 400Z" fill="#040b12" stroke="#040b12"></path><path d="M604.9 397L639.6 272L586.6 259Z" fill="#060b14" stroke="#060b14"></path><path d="M586.6 259L630.9 202L580.6 214Z" fill="#060b14" stroke="#060b14"></path><path d="M227.6 193L287.1 258L369.4 214Z" fill="#1e0c18" stroke="#1e0c18"></path><path d="M297.4 267L223.1 278L308.4 336Z" fill="#060b14" stroke="#060b14"></path><path d="M290.7 407L317.4 471L373.7 429Z" fill="#120c19" stroke="#120c19"></path><path d="M354.1 484L296.7 555L396.4 508Z" fill="#040b12" stroke="#040b12"></path><path d="M671.1 341L639.6 272L604.9 397Z" fill="#03080b" stroke="#03080b"></path><path d="M538 105L517.3 150L580.6 214Z" fill="#03090f" stroke="#03090f"></path><path d="M580.6 214L517.3 150L572.3 216Z" fill="#03090f" stroke="#03090f"></path><path d="M447.7 180L334.4 92L382.4 201Z" fill="#120c19" stroke="#120c19"></path><path d="M517.3 150L473.7 139L447.7 180Z" fill="#120c19" stroke="#120c19"></path><path d="M227.6 193L223.1 278L287.1 258Z" fill="#0a0c16" stroke="#0a0c16"></path><path d="M661.1 418L654.1 389L624.9 410Z" fill="#1e0c18" stroke="#1e0c18"></path><path d="M624.9 410L654.1 389L604.9 397Z" fill="#0e0c18" stroke="#0e0c18"></path><path d="M522.3 600L459.3 480L441 490Z" fill="#170c19" stroke="#170c19"></path><path d="M535 476L610.9 494L573.3 400Z" fill="#040b12" stroke="#040b12"></path><path d="M654.1 389L671.1 341L604.9 397Z" fill="#03080b" stroke="#03080b"></path><path d="M559.6 523L610.9 494L535 476Z" fill="#1e0c18" stroke="#1e0c18"></path><path d="M678.4 457L661.1 418L624.9 410Z" fill="#1a0c19" stroke="#1a0c19"></path><path d="M654.1 389L700.4 370L671.1 341Z" fill="#03090f" stroke="#03090f"></path><path d="M671.1 341L672.1 297L639.6 272Z" fill="#0a0c16" stroke="#0a0c16"></path><path d="M639.6 272L630.9 202L586.6 259Z" fill="#040b12" stroke="#040b12"></path><path d="M689.9 236L630.9 202L639.6 272Z" fill="#03080b" stroke="#03080b"></path><path d="M227.6 193L369.4 214L260.9 120Z" fill="#1e0c18" stroke="#1e0c18"></path><path d="M287.1 258L223.1 278L297.4 267Z" fill="#03080b" stroke="#03080b"></path><path d="M290.7 407L274.9 509L317.4 471Z" fill="#1e0c18" stroke="#1e0c18"></path><path d="M188.1 438L274.9 509L290.7 407Z" fill="#03080b" stroke="#03080b"></path><path d="M317.4 471L296.7 555L354.1 484Z" fill="#120c19" stroke="#120c19"></path><path d="M571.9 600L599.3 541L559.6 523Z" fill="#03080b" stroke="#03080b"></path><path d="M559.6 523L599.3 541L610.9 494Z" fill="#170c19" stroke="#170c19"></path><path d="M610.9 494L678.4 457L624.9 410Z" fill="#060b14" stroke="#060b14"></path><path d="M439 600L441 490L396.4 508Z" fill="#060b14" stroke="#060b14"></path><path d="M661.1 418L700.4 370L654.1 389Z" fill="#0e0c18" stroke="#0e0c18"></path><path d="M671.1 341L700.4 370L672.1 297Z" fill="#040b12" stroke="#040b12"></path><path d="M678.4 457L700.4 370L661.1 418Z" fill="#03090f" stroke="#03090f"></path><path d="M223.1 278L203.1 341L308.4 336Z" fill="#120c19" stroke="#120c19"></path><path d="M654.6 155L538 105L580.6 214Z" fill="#170c19" stroke="#170c19"></path><path d="M517.3 150L538 105L473.7 139Z" fill="#040b12" stroke="#040b12"></path><path d="M726.1 483L678.4 457L707.4 529Z" fill="#1e0c18" stroke="#1e0c18"></path><path d="M538 105L459 86L473.7 139Z" fill="#120c19" stroke="#120c19"></path><path d="M473.7 139L459 86L447.7 180Z" fill="#060b14" stroke="#060b14"></path><path d="M672.1 297L691.9 247L639.6 272Z" fill="#040b12" stroke="#040b12"></path><path d="M630.9 202L654.6 155L580.6 214Z" fill="#060b14" stroke="#060b14"></path><path d="M827.7 311L691.9 247L672.1 297Z" fill="#120c19" stroke="#120c19"></path><path d="M363.7 600L439 600L396.4 508Z" fill="#03080b" stroke="#03080b"></path><path d="M691.9 247L689.9 236L639.6 272Z" fill="#1a0c19" stroke="#1a0c19"></path><path d="M274.9 509L296.7 555L317.4 471Z" fill="#1a0c19" stroke="#1a0c19"></path><path d="M439 600L522.3 600L441 490Z" fill="#0e0c18" stroke="#0e0c18"></path><path d="M334.4 92L369.4 214L382.4 201Z" fill="#03080b" stroke="#03080b"></path><path d="M166.6 337L169.9 348L203.1 341Z" fill="#170c19" stroke="#170c19"></path><path d="M296.7 555L363.7 600L396.4 508Z" fill="#03090f" stroke="#03090f"></path><path d="M689.9 236L654.6 155L630.9 202Z" fill="#0a0c16" stroke="#0a0c16"></path><path d="M459 86L334.4 92L447.7 180Z" fill="#210c16" stroke="#210c16"></path><path d="M203.1 341L188.1 438L290.7 407Z" fill="#0a0c16" stroke="#0a0c16"></path><path d="M274.9 509L219.1 552L296.7 555Z" fill="#1e0c18" stroke="#1e0c18"></path><path d="M203.1 341L169.9 348L188.1 438Z" fill="#03080b" stroke="#03080b"></path><path d="M166.6 337L203.1 341L223.1 278Z" fill="#120c19" stroke="#120c19"></path><path d="M522.3 600L571.9 600L559.6 523Z" fill="#1e0c18" stroke="#1e0c18"></path><path d="M599.3 541L707.4 529L610.9 494Z" fill="#1e0c18" stroke="#1e0c18"></path><path d="M144.9 256L166.6 337L223.1 278Z" fill="#120c19" stroke="#120c19"></path><path d="M134.9 420L177.9 460L188.1 438Z" fill="#040b12" stroke="#040b12"></path><path d="M538 105L468.3 55L459 86Z" fill="#1e0c18" stroke="#1e0c18"></path><path d="M459 86L447.3 26L334.4 92Z" fill="#0e0c18" stroke="#0e0c18"></path><path d="M447.3 26L468.3 55L480.3 0Z" fill="#0e0c18" stroke="#0e0c18"></path><path d="M571.9 600L619.6 579L599.3 541Z" fill="#120c19" stroke="#120c19"></path><path d="M334.4 92L260.9 120L369.4 214Z" fill="#03090f" stroke="#03090f"></path><path d="M134.9 420L188.1 438L169.9 348Z" fill="#03080b" stroke="#03080b"></path><path d="M188.1 438L177.9 460L274.9 509Z" fill="#0e0c18" stroke="#0e0c18"></path><path d="M227.6 193L165.9 237L223.1 278Z" fill="#170c19" stroke="#170c19"></path><path d="M160.1 198L165.9 237L227.6 193Z" fill="#1e0c18" stroke="#1e0c18"></path><path d="M691.9 247L720.1 194L689.9 236Z" fill="#0e0c18" stroke="#0e0c18"></path><path d="M689.9 236L720.1 194L654.6 155Z" fill="#1e0c18" stroke="#1e0c18"></path><path d="M727.1 190L720.1 194L733.4 191Z" fill="#1a0c19" stroke="#1a0c19"></path><path d="M707.4 529L678.4 457L610.9 494Z" fill="#1e0c18" stroke="#1e0c18"></path><path d="M678.4 457L766.7 381L700.4 370Z" fill="#03090f" stroke="#03090f"></path><path d="M733.4 191L720.1 194L691.9 247Z" fill="#210c16" stroke="#210c16"></path><path d="M137.3 326L139.6 332L166.6 337Z" fill="#03090f" stroke="#03090f"></path><path d="M166.6 337L139.6 332L169.9 348Z" fill="#170c19" stroke="#170c19"></path><path d="M177.9 460L219.1 552L274.9 509Z" fill="#120c19" stroke="#120c19"></path><path d="M296.7 555L244.4 600L363.7 600Z" fill="#0e0c18" stroke="#0e0c18"></path><path d="M766.7 381L672.1 297L700.4 370Z" fill="#120c19" stroke="#120c19"></path><path d="M720.1 194L727.1 190L654.6 155Z" fill="#03080b" stroke="#03080b"></path><path d="M533.6 23L468.3 55L538 105Z" fill="#060b14" stroke="#060b14"></path><path d="M619.6 579L707.4 529L599.3 541Z" fill="#0e0c18" stroke="#0e0c18"></path><path d="M144.9 256L137.3 326L166.6 337Z" fill="#170c19" stroke="#170c19"></path><path d="M139.6 332L134.9 420L169.9 348Z" fill="#040b12" stroke="#040b12"></path><path d="M726.1 483L766.7 381L678.4 457Z" fill="#040b12" stroke="#040b12"></path><path d="M533.6 23L538 105L631.9 47Z" fill="#0a0c16" stroke="#0a0c16"></path><path d="M468.3 55L447.3 26L459 86Z" fill="#1a0c19" stroke="#1a0c19"></path><path d="M334.4 92L334.7 40L260.9 120Z" fill="#0e0c18" stroke="#0e0c18"></path><path d="M827.7 311L733.4 191L691.9 247Z" fill="#170c19" stroke="#170c19"></path><path d="M727.1 190L691.4 104L654.6 155Z" fill="#210c16" stroke="#210c16"></path><path d="M160.1 198L144.9 256L165.9 237Z" fill="#060b14" stroke="#060b14"></path><path d="M165.9 237L144.9 256L223.1 278Z" fill="#1a0c19" stroke="#1a0c19"></path><path d="M447.3 26L334.7 40L334.4 92Z" fill="#060b14" stroke="#060b14"></path><path d="M185.9 128L227.6 193L260.9 120Z" fill="#1e0c18" stroke="#1e0c18"></path><path d="M185.9 128L160.1 198L227.6 193Z" fill="#0a0c16" stroke="#0a0c16"></path><path d="M104.6 447L134.9 420L42.6 346Z" fill="#0a0c16" stroke="#0a0c16"></path><path d="M177.9 460L159.1 600L219.1 552Z" fill="#060b14" stroke="#060b14"></path><path d="M631.9 47L538 105L654.6 155Z" fill="#1e0c18" stroke="#1e0c18"></path><path d="M159.1 600L244.4 600L219.1 552Z" fill="#0a0c16" stroke="#0a0c16"></path><path d="M219.1 552L244.4 600L296.7 555Z" fill="#120c19" stroke="#120c19"></path><path d="M571.9 600L661.6 600L619.6 579Z" fill="#170c19" stroke="#170c19"></path><path d="M619.6 579L661.6 600L707.4 529Z" fill="#1e0c18" stroke="#1e0c18"></path><path d="M733.4 191L691.4 104L727.1 190Z" fill="#040b12" stroke="#040b12"></path><path d="M169.1 103L185.9 128L260.9 120Z" fill="#1e0c18" stroke="#1e0c18"></path><path d="M484.7 0L480.3 0L468.3 55Z" fill="#03090f" stroke="#03090f"></path><path d="M447.3 26L379.4 0L334.7 40Z" fill="#1e0c18" stroke="#1e0c18"></path><path d="M533.6 23L484.7 0L468.3 55Z" fill="#210c16" stroke="#210c16"></path><path d="M691.4 104L631.9 47L654.6 155Z" fill="#210c16" stroke="#210c16"></path><path d="M533.6 23L518 0L484.7 0Z" fill="#0a0c16" stroke="#0a0c16"></path><path d="M813.7 490L790.1 417L726.1 483Z" fill="#170c19" stroke="#170c19"></path><path d="M726.1 483L790.1 417L766.7 381Z" fill="#0e0c18" stroke="#0e0c18"></path><path d="M766.7 381L827.7 311L672.1 297Z" fill="#170c19" stroke="#170c19"></path><path d="M813.7 490L726.1 483L707.4 529Z" fill="#120c19" stroke="#120c19"></path><path d="M618.1 0L518 0L533.6 23Z" fill="#040b12" stroke="#040b12"></path><path d="M480.3 0L379.4 0L447.3 26Z" fill="#0e0c18" stroke="#0e0c18"></path><path d="M245.1 0L169.1 103L260.9 120Z" fill="#060b14" stroke="#060b14"></path><path d="M379.4 0L363.4 3L334.7 40Z" fill="#120c19" stroke="#120c19"></path><path d="M379.4 0L346.1 5L363.4 3Z" fill="#210c16" stroke="#210c16"></path><path d="M363.4 3L346.1 5L334.7 40Z" fill="#210c16" stroke="#210c16"></path><path d="M42.6 346L134.9 420L139.6 332Z" fill="#210c16" stroke="#210c16"></path><path d="M134.9 420L107.3 461L177.9 460Z" fill="#03080b" stroke="#03080b"></path><path d="M84.6 472L104.6 447L0 402Z" fill="#210c16" stroke="#210c16"></path><path d="M104.6 447L107.3 461L134.9 420Z" fill="#040b12" stroke="#040b12"></path><path d="M571.9 600L681.9 631L661.6 600Z" fill="#1a0c19" stroke="#1a0c19"></path><path d="M661.6 600L734.1 600L707.4 529Z" fill="#1e0c18" stroke="#1e0c18"></path><path d="M522.3 600L681.9 631L571.9 600Z" fill="#0e0c18" stroke="#0e0c18"></path><path d="M439 600L681.9 631L522.3 600Z" fill="#040b12" stroke="#040b12"></path><path d="M363.7 600L681.9 631L439 600Z" fill="#210c16" stroke="#210c16"></path><path d="M111.3 619L681.9 631L363.7 600Z" fill="#170c19" stroke="#170c19"></path><path d="M245.1 0L260.9 120L334.7 40Z" fill="#1e0c18" stroke="#1e0c18"></path><path d="M185.9 128L100.3 159L160.1 198Z" fill="#0e0c18" stroke="#0e0c18"></path><path d="M160.1 198L100.3 159L144.9 256Z" fill="#170c19" stroke="#170c19"></path><path d="M42.6 346L139.6 332L137.3 326Z" fill="#1e0c18" stroke="#1e0c18"></path><path d="M691.4 104L709.4 72L631.9 47Z" fill="#0a0c16" stroke="#0a0c16"></path><path d="M631.9 47L618.1 0L533.6 23Z" fill="#03090f" stroke="#03090f"></path><path d="M805.7 161L709.4 72L691.4 104Z" fill="#1e0c18" stroke="#1e0c18"></path><path d="M805.7 161L691.4 104L733.4 191Z" fill="#0e0c18" stroke="#0e0c18"></path><path d="M790.1 417L827.7 311L766.7 381Z" fill="#040b12" stroke="#040b12"></path><path d="M624.6 0L618.1 0L631.9 47Z" fill="#0a0c16" stroke="#0a0c16"></path><path d="M681.9 631L734.1 600L661.6 600Z" fill="#1e0c18" stroke="#1e0c18"></path><path d="M900 347L900 343L827.7 311Z" fill="#210c16" stroke="#210c16"></path><path d="M709.4 72L656.1 19L631.9 47Z" fill="#120c19" stroke="#120c19"></path><path d="M656.1 19L624.6 0L631.9 47Z" fill="#0a0c16" stroke="#0a0c16"></path><path d="M757.7 600L813.7 490L707.4 529Z" fill="#120c19" stroke="#120c19"></path><path d="M42.6 346L137.3 326L144.9 256Z" fill="#170c19" stroke="#170c19"></path><path d="M104.6 447L84.6 472L107.3 461Z" fill="#03090f" stroke="#03090f"></path><path d="M107.3 461L159.1 600L177.9 460Z" fill="#0e0c18" stroke="#0e0c18"></path><path d="M126.9 600L159.1 600L107.3 461Z" fill="#0e0c18" stroke="#0e0c18"></path><path d="M244.4 600L111.3 619L363.7 600Z" fill="#170c19" stroke="#170c19"></path><path d="M870.4 259L805.7 161L733.4 191Z" fill="#210c16" stroke="#210c16"></path><path d="M709.4 72L684.9 -4L656.1 19Z" fill="#210c16" stroke="#210c16"></path><path d="M112.9 115L100.3 159L185.9 128Z" fill="#0a0c16" stroke="#0a0c16"></path><path d="M734.1 600L757.7 600L707.4 529Z" fill="#03080b" stroke="#03080b"></path><path d="M681.9 631L757.7 600L734.1 600Z" fill="#0a0c16" stroke="#0a0c16"></path><path d="M379.4 0L245.1 0L346.1 5Z" fill="#1a0c19" stroke="#1a0c19"></path><path d="M346.1 5L245.1 0L334.7 40Z" fill="#03080b" stroke="#03080b"></path><path d="M169.1 103L112.9 115L185.9 128Z" fill="#03090f" stroke="#03090f"></path><path d="M108.6 45L112.9 115L169.1 103Z" fill="#120c19" stroke="#120c19"></path><path d="M0 314L42.6 346L0 292Z" fill="#0a0c16" stroke="#0a0c16"></path><path d="M42.6 346L144.9 256L0 292Z" fill="#060b14" stroke="#060b14"></path><path d="M84.6 472L126.9 600L107.3 461Z" fill="#03090f" stroke="#03090f"></path><path d="M159.1 600L111.3 619L244.4 600Z" fill="#1a0c19" stroke="#1a0c19"></path><path d="M97.6 600L126.9 600L49.6 518Z" fill="#060b14" stroke="#060b14"></path><path d="M734.9 0L684.9 -4L709.4 72Z" fill="#0a0c16" stroke="#0a0c16"></path><path d="M656.1 19L684.9 -4L624.6 0Z" fill="#03080b" stroke="#03080b"></path><path d="M624.6 0L684.9 -4L618.1 0Z" fill="#210c16" stroke="#210c16"></path><path d="M618.1 0L684.9 -4L518 0Z" fill="#040b12" stroke="#040b12"></path><path d="M518 0L684.9 -4L484.7 0Z" fill="#03080b" stroke="#03080b"></path><path d="M484.7 0L684.9 -4L480.3 0Z" fill="#120c19" stroke="#120c19"></path><path d="M480.3 0L684.9 -4L379.4 0Z" fill="#210c16" stroke="#210c16"></path><path d="M379.4 0L684.9 -4L245.1 0Z" fill="#03090f" stroke="#03090f"></path><path d="M827.7 311L870.4 259L733.4 191Z" fill="#0a0c16" stroke="#0a0c16"></path><path d="M900 323L870.4 259L827.7 311Z" fill="#0a0c16" stroke="#0a0c16"></path><path d="M49.6 518L126.9 600L84.6 472Z" fill="#03090f" stroke="#03090f"></path><path d="M126.9 600L111.3 619L159.1 600Z" fill="#120c19" stroke="#120c19"></path><path d="M97.6 600L111.3 619L126.9 600Z" fill="#060b14" stroke="#060b14"></path><path d="M12.3 478L49.6 518L84.6 472Z" fill="#1e0c18" stroke="#1e0c18"></path><path d="M757.7 600L856.4 518L813.7 490Z" fill="#060b14" stroke="#060b14"></path><path d="M900 347L827.7 311L900 402Z" fill="#120c19" stroke="#120c19"></path><path d="M809.7 0L734.9 0L709.4 72Z" fill="#1e0c18" stroke="#1e0c18"></path><path d="M857.4 102L709.4 72L805.7 161Z" fill="#120c19" stroke="#120c19"></path><path d="M827.7 311L790.1 417L900 402Z" fill="#03080b" stroke="#03080b"></path><path d="M900 402L790.1 417L813.7 490Z" fill="#03080b" stroke="#03080b"></path><path d="M900 343L900 323L827.7 311Z" fill="#040b12" stroke="#040b12"></path><path d="M245.1 0L160.6 0L169.1 103Z" fill="#03090f" stroke="#03090f"></path><path d="M684.9 -4L160.6 0L245.1 0Z" fill="#040b12" stroke="#040b12"></path><path d="M900 505L900 402L813.7 490Z" fill="#1a0c19" stroke="#1a0c19"></path><path d="M64.6 103L100.3 159L112.9 115Z" fill="#040b12" stroke="#040b12"></path><path d="M0 292L144.9 256L0 196Z" fill="#03080b" stroke="#03080b"></path><path d="M42.6 346L0 402L104.6 447Z" fill="#1a0c19" stroke="#1a0c19"></path><path d="M934.7 476L905.7 312L900 347Z" fill="#210c16" stroke="#210c16"></path><path d="M900 347L905.7 312L900 343Z" fill="#170c19" stroke="#170c19"></path><path d="M900 343L905.7 312L900 323Z" fill="#210c16" stroke="#210c16"></path><path d="M900 323L905.7 312L870.4 259Z" fill="#170c19" stroke="#170c19"></path><path d="M900.7 154L857.4 102L805.7 161Z" fill="#1e0c18" stroke="#1e0c18"></path><path d="M160.6 0L108.6 45L169.1 103Z" fill="#1a0c19" stroke="#1a0c19"></path><path d="M0 314L-0.7 383L42.6 346Z" fill="#1e0c18" stroke="#1e0c18"></path><path d="M0 196L144.9 256L100.3 159Z" fill="#120c19" stroke="#120c19"></path><path d="M0 314L-28.7 231L-0.7 383Z" fill="#1a0c19" stroke="#1a0c19"></path><path d="M95.3 53L64.6 103L112.9 115Z" fill="#170c19" stroke="#170c19"></path><path d="M-0.7 383L0 402L42.6 346Z" fill="#03080b" stroke="#03080b"></path><path d="M49.6 518L74.3 600L97.6 600Z" fill="#0e0c18" stroke="#0e0c18"></path><path d="M97.6 600L74.3 600L111.3 619Z" fill="#03090f" stroke="#03090f"></path><path d="M0 600L74.3 600L49.6 518Z" fill="#210c16" stroke="#210c16"></path><path d="M116.9 0L95.3 53L108.6 45Z" fill="#060b14" stroke="#060b14"></path><path d="M108.6 45L95.3 53L112.9 115Z" fill="#1e0c18" stroke="#1e0c18"></path><path d="M0 402L12.3 478L84.6 472Z" fill="#040b12" stroke="#040b12"></path><path d="M866.7 91L857.4 102L900 105Z" fill="#03080b" stroke="#03080b"></path><path d="M-28.7 231L0 486L0 402Z" fill="#03080b" stroke="#03080b"></path><path d="M0 402L0 486L12.3 478Z" fill="#120c19" stroke="#120c19"></path><path d="M12.3 478L0 487L49.6 518Z" fill="#120c19" stroke="#120c19"></path><path d="M-28.7 231L0 487L0 486Z" fill="#03090f" stroke="#03090f"></path><path d="M0 486L0 487L12.3 478Z" fill="#120c19" stroke="#120c19"></path><path d="M0 153L0 196L100.3 159Z" fill="#1a0c19" stroke="#1a0c19"></path><path d="M0 292L-28.7 231L0 314Z" fill="#040b12" stroke="#040b12"></path><path d="M0 153L100.3 159L64.6 103Z" fill="#03080b" stroke="#03080b"></path><path d="M883.7 560L900 505L856.4 518Z" fill="#170c19" stroke="#170c19"></path><path d="M856.4 518L900 505L813.7 490Z" fill="#040b12" stroke="#040b12"></path><path d="M900 402L934.7 476L900 347Z" fill="#1e0c18" stroke="#1e0c18"></path><path d="M160.6 0L116.9 0L108.6 45Z" fill="#120c19" stroke="#120c19"></path><path d="M13.3 116L0 153L64.6 103Z" fill="#040b12" stroke="#040b12"></path><path d="M684.9 -4L116.9 0L160.6 0Z" fill="#060b14" stroke="#060b14"></path><path d="M681.9 631L858.4 600L757.7 600Z" fill="#210c16" stroke="#210c16"></path><path d="M757.7 600L858.4 600L856.4 518Z" fill="#120c19" stroke="#120c19"></path><path d="M858.4 600L883.7 560L856.4 518Z" fill="#1e0c18" stroke="#1e0c18"></path><path d="M900.7 154L805.7 161L870.4 259Z" fill="#170c19" stroke="#170c19"></path><path d="M857.4 102L809.7 0L709.4 72Z" fill="#03080b" stroke="#03080b"></path><path d="M905.7 312L900.7 154L870.4 259Z" fill="#040b12" stroke="#040b12"></path><path d="M13.3 116L64.6 103L0 0Z" fill="#1a0c19" stroke="#1a0c19"></path><path d="M0 196L-28.7 231L0 292Z" fill="#1a0c19" stroke="#1a0c19"></path><path d="M0 153L-28.7 231L0 196Z" fill="#060b14" stroke="#060b14"></path><path d="M-0.7 383L-28.7 231L0 402Z" fill="#1e0c18" stroke="#1e0c18"></path><path d="M0 0L64.6 103L95.3 53Z" fill="#03080b" stroke="#03080b"></path><path d="M0 153L0 135L-28.7 231Z" fill="#0a0c16" stroke="#0a0c16"></path><path d="M734.9 0L809.7 0L684.9 -4Z" fill="#120c19" stroke="#120c19"></path><path d="M866.7 91L809.7 0L857.4 102Z" fill="#1e0c18" stroke="#1e0c18"></path><path d="M13.3 116L0 135L0 153Z" fill="#0e0c18" stroke="#0e0c18"></path><path d="M900 591L934.7 476L900 505Z" fill="#0a0c16" stroke="#0a0c16"></path><path d="M900 505L934.7 476L900 402Z" fill="#040b12" stroke="#040b12"></path><path d="M905.7 312L934.7 476L900.7 154Z" fill="#1a0c19" stroke="#1a0c19"></path><path d="M-20.7 0L0 126L13.3 116Z" fill="#210c16" stroke="#210c16"></path><path d="M13.3 116L0 126L0 135Z" fill="#1a0c19" stroke="#1a0c19"></path><path d="M0 135L0 126L-28.7 231Z" fill="#040b12" stroke="#040b12"></path><path d="M900.7 154L900 105L857.4 102Z" fill="#0e0c18" stroke="#0e0c18"></path><path d="M866.7 91L869.4 0L809.7 0Z" fill="#040b12" stroke="#040b12"></path><path d="M934.7 476L900 105L900.7 154Z" fill="#0a0c16" stroke="#0a0c16"></path><path d="M883.7 560L900 591L900 505Z" fill="#170c19" stroke="#170c19"></path><path d="M858.4 600L900 591L883.7 560Z" fill="#120c19" stroke="#120c19"></path><path d="M681.9 631L900 600L858.4 600Z" fill="#120c19" stroke="#120c19"></path><path d="M858.4 600L900 600L900 591Z" fill="#0a0c16" stroke="#0a0c16"></path><path d="M900 591L900 600L934.7 476Z" fill="#170c19" stroke="#170c19"></path><path d="M0 487L0 600L49.6 518Z" fill="#03090f" stroke="#03090f"></path><path d="M74.3 600L0 600L111.3 619Z" fill="#0e0c18" stroke="#0e0c18"></path><path d="M-28.7 231L0 600L0 487Z" fill="#120c19" stroke="#120c19"></path><path d="M934.7 476L900 59L900 105Z" fill="#03090f" stroke="#03090f"></path><path d="M900 105L900 59L866.7 91Z" fill="#170c19" stroke="#170c19"></path><path d="M900 59L869.4 0L866.7 91Z" fill="#060b14" stroke="#060b14"></path><path d="M809.7 0L869.4 0L684.9 -4Z" fill="#120c19" stroke="#120c19"></path><path d="M934.7 476L900 30L900 59Z" fill="#1a0c19" stroke="#1a0c19"></path><path d="M900 59L900 30L869.4 0Z" fill="#040b12" stroke="#040b12"></path><path d="M934.7 476L900 0L900 30Z" fill="#03090f" stroke="#03090f"></path><path d="M900 30L900 0L869.4 0Z" fill="#03090f" stroke="#03090f"></path><path d="M869.4 0L900 0L684.9 -4Z" fill="#0e0c18" stroke="#0e0c18"></path><path d="M684.9 -4L0 0L116.9 0Z" fill="#1e0c18" stroke="#1e0c18"></path><path d="M116.9 0L0 0L95.3 53Z" fill="#0a0c16" stroke="#0a0c16"></path><path d="M0 126L-20.7 0L-28.7 231Z" fill="#03080b" stroke="#03080b"></path><path d="M684.9 -4L-20.7 0L0 0Z" fill="#03080b" stroke="#03080b"></path><path d="M0 0L-20.7 0L13.3 116Z" fill="#03090f" stroke="#03090f"></path></g></svg>